Coordinates
version=1
nRows=9
nColumns=42
inDegrees=yes

Units are S.I. units (second, meters, Newtons, ...)
If the header above contains a line with 'inDegrees', this indicates whether rotational values are in degrees (yes) or radians (no).

endheader
time	pelvis_tilt	pelvis_list	pelvis_rotation	pelvis_tx	pelvis_ty	pelvis_tz	hip_flexion_r	hip_adduction_r	hip_rotation_r	knee_angle_r	knee_angle_r_beta	ankle_angle_r	subtalar_angle_r	mtp_angle_r	hip_flexion_l	hip_adduction_l	hip_rotation_l	knee_angle_l	knee_angle_l_beta	ankle_angle_l	subtalar_angle_l	mtp_angle_l	lumbar_extension	lumbar_bending	lumbar_rotation	sh_tx_r	sh_ty_r	sh_tz_r	sh_plane_elev_r	sh_elev_r	sh_axial_rot_r	elbow_flex_r	pro_sup_r	sh_tx_l	sh_ty_l	sh_tz_l	sh_plane_elev_l	sh_elev_l	sh_axial_rot_l	elbow_flex_l	pro_sup_l
      0.00000000	     -4.43370100	     -0.30980278	     -3.26431933	      0.30444507	      0.93145725	      0.05736290	      5.92782983	     -1.46261633	      1.93204707	      6.51051818	      0.11362998	      2.14294470	     -5.37501237	     -4.82337923	      5.78703541	     -8.36950582	    -10.35068841	      8.90573261	      0.15543436	      8.48151688	     -8.43112379	     -4.82337923	     -3.40690819	      2.24742744	     -4.11315996	     -0.00402681	     -0.01505654	     -0.00527546	     -7.71316130	      7.86561622	      1.86295152	     30.60956911	     83.22055565	     -0.00305235	     -0.01473969	     -0.00497183	      8.82076715	      7.86257155	     -1.12584398	     27.99735838	     74.01703202
      0.01694910	     -6.14552727	     -0.05666054	     -4.45655913	      0.30690769	      0.92910625	      0.05677600	      7.72073817	     -1.72095121	      3.10304856	      6.32204656	      0.11034053	      5.45348972	     -2.43929520	     -5.11363612	      7.29103784	     -8.04878918	    -13.17221948	      8.18976122	      0.14293830	      8.61091917	     -6.00780381	     -5.11363612	     -0.22892127	      2.44992427	     -4.13642523	     -0.00754023	     -0.01696323	     -0.00577839	    -11.43958311	      6.57401212	     -1.30728731	     30.23239215	     80.95495664	     -0.00363939	     -0.01682872	     -0.00524446	      5.17461214	      5.70191307	     -4.34273359	     26.89972337	     72.80101653
      0.03389830	     -6.92185325	      0.25537514	     -5.11278400	      0.30651348	      0.92552341	      0.04881361	      8.40593535	     -2.51530314	      2.56178579	      5.67460157	      0.09904048	      5.56496815	     -1.51414158	     -5.34920707	      7.63301644	     -7.69449440	    -15.05929198	      7.55917923	      0.13193257	      8.55529956	     -4.94905995	     -5.34920707	      0.57956038	      2.27439024	     -4.18128415	     -0.00827091	     -0.01686241	     -0.00551959	    -12.40528491	      6.04305160	     -1.46570111	     31.46629098	     79.75065945	     -0.00550938	     -0.01716555	     -0.00524199	      4.87348275	      5.43781653	     -4.13622466	     25.79340668	     72.47410420
      0.05084750	     -6.80569382	      0.53684846	     -5.37672686	      0.30672690	      0.92693899	      0.04889397	      8.26828614	     -3.07750478	      2.97287164	      5.15147228	      0.08991015	      5.87771475	     -0.98032229	     -5.91491015	      6.81237574	     -7.21545967	    -16.04587673	      6.49362698	      0.11333517	      8.36153953	     -4.99542332	     -5.91491015	      0.45846631	      1.90529414	     -3.57937315	     -0.00686643	     -0.01748915	     -0.00537156	    -15.44584776	      5.26357233	      1.30671525	     32.93515718	     79.50196555	     -0.00547191	     -0.01739328	     -0.00506833	      0.67923097	      5.18869612	     -0.63679899	     25.06982890	     74.87475323
      0.06779660	     -6.70630612	      0.59979622	     -5.38494569	      0.30678159	      0.92995854	      0.04893426	      8.06321104	     -3.24567301	      3.33215483	      4.68025549	      0.08168587	      5.89937422	     -0.94243079	     -5.92440677	      6.31063919	     -7.00034262	    -16.43681249	      5.76665874	      0.10064718	      8.12648314	     -4.78432802	     -5.92440677	      0.19491753	      1.86221042	     -3.66186849	     -0.00584223	     -0.01768460	     -0.00542287	    -14.59615194	      4.67955145	      1.17538182	     33.65379626	     79.04231474	     -0.00626191	     -0.01741439	     -0.00490447	      1.61067552	      5.45154479	     -0.62396834	     24.14556813	     74.55079657
      0.08474580	     -6.58556006	      0.60122397	     -5.17508226	      0.30673547	      0.92467319	      0.04866852	      7.85342381	     -3.27257892	      3.72393242	      4.45069562	      0.07767929	      5.99512828	     -1.30850243	     -6.06451390	      6.11140573	     -6.90250864	    -16.51670845	      5.57589111	      0.09731766	      8.16799498	     -4.75400015	     -6.06451390	      0.02997277	      1.77304780	     -3.54484947	     -0.00487911	     -0.01776083	     -0.00537049	    -13.11985032	      4.40281420	      0.61529328	     33.89403149	     78.35371449	     -0.00575866	     -0.01735839	     -0.00475090	      2.21338466	      5.75352821	     -1.06155069	     23.52233362	     73.62783526
      0.10169490	     -6.55529838	      0.62780966	     -5.04954044	      0.30676858	      0.92513770	      0.04860661	      7.75731745	     -3.27982686	      3.94849340	      4.38147411	      0.07647115	      6.11860661	     -1.66202213	     -6.13364777	      5.98862335	     -6.83663997	    -16.77273740	      5.35630735	      0.09348520	      8.19924866	     -4.36801096	     -6.13364777	      0.00658935	      1.56880788	     -3.55641824	     -0.00417711	     -0.01778581	     -0.00544693	    -11.71997383	      4.04748984	      0.30308523	     33.89467051	     77.53478965	     -0.00532246	     -0.01717522	     -0.00469075	      3.03075331	      6.03587432	     -1.47698052	     22.97047862	     72.79890596
      0.11864410	     -6.55718914	      0.62254963	     -4.80974530	      0.30686907	      0.92569114	      0.04800432	      7.67295361	     -3.25088035	      4.21028036	      4.36252353	      0.07614040	      6.10238765	     -2.32438230	     -6.18945075	      5.97804288	     -6.80492828	    -16.87461044	      5.24277568	      0.09150370	      8.10701493	     -4.09480972	     -6.18945075	      0.02357000	      1.37103795	     -3.78053311	     -0.00352091	     -0.01779848	     -0.00557182	    -10.70143590	      3.82639217	      0.10889032	     33.88634020	     77.05049243	     -0.00563774	     -0.01702684	     -0.00457357	      3.34124518	      6.40198308	     -1.80055148	     23.03678709	     72.12042268
      0.13559320	     -6.46471318	      0.62897085	     -4.49637196	      0.31071598	      0.92605296	      0.04307312	      7.36622248	     -3.38264534	      4.26799795	      4.30416490	      0.07512185	      5.97793463	     -2.87166833	     -6.40340890	      5.81619806	     -6.67055592	    -16.94928404	      5.15255229	      0.08992900	      8.00413645	     -3.68316998	     -6.40340890	      0.00879392	      1.21902551	     -4.14301048	     -0.00305702	     -0.01783127	     -0.00564087	     -9.68906319	      3.71516696	      0.05597657	     33.29865491	     76.24110300	     -0.00638810	     -0.01694598	     -0.00454292	      3.21508247	      6.47355475	     -2.17812751	     23.15369817	     70.75643652
